<svg xmlns="http://www.w3.org/2000/svg" version="1.1" xmlns:xlink="http://www.w3.org/1999/xlink" xmlns:svgjs="http://svgjs.dev/svgjs" width="1500" height="1500" viewBox="0 0 1500 1500"><rect width="1500" height="1500" fill="#000000"></rect><g transform="matrix(0.6666666666666666,0,0,0.6666666666666666,249.39393939393938,614.2651174492894)"><svg viewBox="0 0 396 108" data-background-color="#ffffff" preserveAspectRatio="xMidYMid meet" height="409" width="1500" xmlns="http://www.w3.org/2000/svg" xmlns:xlink="http://www.w3.org/1999/xlink"><g id="tight-bounds" transform="matrix(1,0,0,1,0.2400000000000091,-0.2369775471647131)"><svg viewBox="0 0 395.52 108.47401982067014" height="108.47401982067014" width="395.52"><g><svg viewBox="0 0 395.52 108.47401982067014" height="108.47401982067014" width="395.52"><g><svg viewBox="0 0 395.52 108.47401982067014" height="108.47401982067014" width="395.52"><g><svg viewBox="0 0 395.52 108.47401982067014" height="108.47401982067014" width="395.52"><g><svg viewBox="0 0 395.52 108.47401982067014" height="108.47401982067014" width="395.52"><g id="textblocktransform"><svg viewBox="0 0 395.52 108.47401982067014" height="108.47401982067014" width="395.52" id="textblock"><g><svg viewBox="0 0 395.52 108.47401982067014" height="108.47401982067014" width="395.52"><g transform="matrix(1,0,0,1,0,0)"><svg width="395.52" viewBox="0.7 -28.203819472214995 162.97 44.703819472214995" height="108.47401982067014" data-palette-color="#acb710"><path d="M4.4 0.35L4.4 0.35Q2.55 0.35 1.63-0.85 0.7-2.05 0.7-3.9L0.7-3.9Q0.7-6 1.8-8.5L1.8-8.5Q2.8-10.75 4.38-12.6 5.95-14.45 7.8-15.58 9.65-16.7 11.35-16.7L11.35-16.7Q13.4-16.7 14.35-15.45 15.3-14.2 15.3-12.3L15.3-12.3Q15.3-10.25 14.25-7.9L14.25-7.9Q13.7-6.7 12.65-5.3 11.6-3.9 10.25-2.6 8.9-1.3 7.38-0.48 5.85 0.35 4.4 0.35ZM5.35-0.65L5.35-0.65Q6.4-0.65 7.45-1.38 8.5-2.1 9.45-3.15 10.4-4.2 11.13-5.28 11.85-6.35 12.2-7.1L12.2-7.1Q13.05-8.7 13.45-10.18 13.85-11.65 13.85-12.75L13.85-12.75Q13.85-15.15 12.05-15.15L12.05-15.15Q10.95-15.15 9.73-14.28 8.5-13.4 7.35-11.95 6.2-10.5 5.35-8.7L5.35-8.7Q3.55-5.1 3.55-2.85L3.55-2.85Q3.55-1.05 4.7-0.75L4.7-0.75Q4.85-0.7 5-0.68 5.15-0.65 5.35-0.65ZM17.9 0.15L17.9 0.15Q16.95 0.15 16.3-0.48 15.65-1.1 15.65-2.65L15.65-2.65Q15.65-3 15.7-3.43 15.75-3.85 15.85-4.35L15.85-4.35Q16.1-5.7 16.9-7.8 17.7-9.9 18.8-12.28 19.9-14.65 21.05-16.88 22.2-19.1 23.15-20.7L23.15-20.7Q25-23.75 26.6-25.4 28.2-27.05 29.45-27.65 30.7-28.25 31.55-28.2L31.55-28.2Q30.25-26.75 28.7-24.65 27.15-22.55 25.4-19.6L25.4-19.6Q23.2-15.8 21.57-12.7 19.95-9.6 18.8-6.35L18.8-6.35Q18.15-4.45 18.15-3.25L18.15-3.25Q18.15-1.55 19.3-1.55L19.3-1.55Q20.2-1.55 21.32-2.45 22.45-3.35 23.1-4.05L23.1-4.05Q24.1-5.05 24.87-5.93 25.65-6.8 26.4-7.7L26.4-7.7Q26.55-7.85 26.65-7.85L26.65-7.85Q26.95-7.85 26.95-7.4L26.95-7.4Q26.95-7.15 26.75-6.95L26.75-6.95Q26.2-6.3 25.67-5.63 25.15-4.95 24.55-4.3L24.55-4.3Q24.05-3.65 23.42-3.03 22.8-2.4 22.2-1.85L22.2-1.85Q21.35-1.05 20.15-0.45 18.95 0.15 17.9 0.15ZM35.09-19.75L35.09-19.75Q34.55-19.75 34.2-20.13 33.84-20.5 33.84-21L33.84-21Q33.84-21.75 34.37-22.28 34.89-22.8 35.55-22.8L35.55-22.8Q36.2-22.8 36.57-22.38 36.95-21.95 36.84-21.3L36.84-21.3Q36.7-20.65 36.22-20.2 35.74-19.75 35.09-19.75ZM28.24 0L28.24 0Q27.14 0 26.34-0.73 25.54-1.45 25.54-3.2L25.54-3.2Q25.54-3.95 25.69-4.85L25.69-4.85Q26.14-7.2 27.17-9.35 28.2-11.5 29.17-13.08 30.14-14.65 30.45-15.15L30.45-15.15Q30.7-15.65 31.74-16.13 32.8-16.6 33.49-16.6L33.49-16.6Q34.09-16.6 34.09-16.2L34.09-16.2Q34.09-15.85 33.84-15.55L33.84-15.55Q33.09-14.35 32.12-12.83 31.14-11.3 30.24-9.6 29.34-7.9 28.74-6.25 28.14-4.6 28.14-3.2L28.14-3.2Q28.14-2.45 28.42-2 28.7-1.55 29.45-1.55L29.45-1.55Q30.24-1.55 31.29-2.33 32.34-3.1 33.32-4.08 34.3-5.05 34.74-5.6L34.74-5.6Q35.24-6.15 35.72-6.65 36.2-7.15 36.59-7.7L36.59-7.7Q36.74-7.85 36.84-7.85L36.84-7.85Q37.14-7.85 37.14-7.4L37.14-7.4Q37.14-7.15 36.95-6.95L36.95-6.95Q36.39-6.3 35.84-5.63 35.3-4.95 34.7-4.3L34.7-4.3Q33.89-3.35 32.89-2.35 31.89-1.35 30.74-0.68 29.59 0 28.24 0ZM39.09 0.6L39.09 0.6Q37.69 0.6 37.04-0.3 36.39-1.2 36.39-2.65L36.39-2.65Q36.39-4.15 37.02-6.03 37.64-7.9 38.72-9.83 39.79-11.75 41.14-13.33 42.49-14.9 43.89-15.75L43.89-15.75Q42.59-15.7 41.22-15.18 39.84-14.65 38.84-14.65L38.84-14.65Q37.99-14.65 37.44-15.33 36.89-16 36.89-16.5L36.89-16.5Q36.89-16.8 37.19-16.8L37.19-16.8Q37.39-16.8 37.74-16.6L37.74-16.6Q38.24-16.3 38.99-16.2 39.74-16.1 40.59-16.1L40.59-16.1Q41.74-16.1 42.82-16.23 43.89-16.35 44.44-16.4L44.44-16.4Q44.59-16.45 44.79-16.45 44.99-16.45 45.19-16.45L45.19-16.45Q45.74-16.45 46.17-16.35 46.59-16.25 46.59-15.95L46.59-15.95Q46.59-15.6 46.04-15.2L46.04-15.2Q45.34-14.7 44.17-13.3 42.99-11.9 41.77-10.05 40.54-8.2 39.64-6.3L39.64-6.3Q39.54-6 39.19-5.13 38.84-4.25 38.54-3.25 38.24-2.25 38.24-1.45L38.24-1.45Q38.24-0.25 39.09-0.25L39.09-0.25Q40.59-0.25 42.14-1.4 43.69-2.55 45.09-4.4 46.49-6.25 47.59-8.4 48.69-10.55 49.34-12.65 49.99-14.75 49.99-16.35L49.99-16.35Q49.99-17.2 49.94-17.9 49.89-18.6 49.69-19.25L49.69-19.25Q49.84-19.3 49.99-19.3 50.14-19.3 50.24-19.3L50.24-19.3Q51.39-19.3 51.92-18.25 52.44-17.2 52.44-15.9L52.44-15.9Q52.44-13.35 50.77-10.13 49.09-6.9 46.39-3.8L46.39-3.8Q45.49-2.85 44.37-1.83 43.24-0.8 41.94-0.1 40.64 0.6 39.09 0.6ZM55.09 0.75L55.09 0.75Q53.24 0.75 52.14-0.33 51.04-1.4 51.04-3.35L51.04-3.35Q51.04-4.85 51.62-6.5 52.19-8.15 52.74-9.1L52.74-9.1Q53.89-11.2 55.52-12.95 57.14-14.7 58.87-15.78 60.59-16.85 62.04-16.85L62.04-16.85Q63.39-16.85 64.37-16.1 65.34-15.35 65.34-14.1L65.34-14.1Q65.34-13.6 65.09-12.95 64.84-12.3 64.29-11.6L64.29-11.6Q62.29-9.05 59.87-7.63 57.44-6.2 54.34-5.5L54.34-5.5Q54.14-4.85 53.99-4.23 53.84-3.6 53.74-3.05L53.74-3.05Q53.69-2.8 53.67-2.58 53.64-2.35 53.64-2.1L53.64-2.1Q53.64-1.1 54.12-0.68 54.59-0.25 55.29-0.25L55.29-0.25Q56.39-0.25 57.64-0.83 58.89-1.4 59.99-2.15 61.09-2.9 61.64-3.35L61.64-3.35Q62.19-3.85 62.72-4.38 63.24-4.9 63.89-5.55L63.89-5.55Q64.39-6.1 64.84-6.63 65.29-7.15 65.69-7.7L65.69-7.7Q65.84-7.85 65.94-7.85L65.94-7.85Q66.24-7.85 66.24-7.4L66.24-7.4Q66.24-7.15 66.04-6.95L66.04-6.95Q65.14-5.85 64.24-4.78 63.34-3.7 62.39-2.7L62.39-2.7Q61.29-1.55 59.37-0.4 57.44 0.75 55.09 0.75ZM54.64-6.15L54.64-6.15Q55.94-6.7 57.67-7.75 59.39-8.8 61.02-10.28 62.64-11.75 63.69-13.45L63.69-13.45Q64.04-14 64.04-14.45L64.04-14.45Q64.04-15.15 63.24-15.15L63.24-15.15Q62.69-15.15 61.89-14.75L61.89-14.75Q59.39-13.4 57.59-11.1 55.79-8.8 54.64-6.15ZM77.49 0.75L77.49 0.75Q75.54 0.75 74.34-0.25 73.14-1.25 73.14-3.4L73.14-3.4Q73.14-4.9 73.61-6.53 74.09-8.15 74.59-9.1L74.59-9.1Q75.64-11.2 77.14-12.95 78.64-14.7 80.31-15.78 81.99-16.85 83.44-16.85L83.44-16.85Q84.89-16.85 85.69-15.88 86.49-14.9 86.49-13.75L86.49-13.75Q86.49-12.75 85.94-12.05L85.94-12.05Q85.24-11.1 84.74-10.7 84.24-10.3 83.99-10.3L83.99-10.3Q83.74-10.3 83.74-10.65L83.74-10.65Q83.74-10.95 83.99-11.6L83.99-11.6Q84.09-11.9 84.39-12.65 84.69-13.4 84.94-14.15 85.19-14.9 85.14-15.15L85.14-15.15Q84.39-15.3 83.01-14.33 81.64-13.35 80.19-11.78 78.74-10.2 77.79-8.45L77.79-8.45Q77.59-8.05 77.09-6.95 76.59-5.85 76.19-4.58 75.79-3.3 75.79-2.2L75.79-2.2Q75.79-1.35 76.19-0.78 76.59-0.2 77.54-0.2L77.54-0.2Q78.34-0.2 79.44-0.6L79.44-0.6Q81.34-1.2 82.96-2.6 84.59-4 85.99-5.55L85.99-5.55Q86.49-6.1 86.94-6.6 87.39-7.1 87.79-7.6L87.79-7.6Q87.89-7.7 87.96-7.78 88.04-7.85 88.09-7.85L88.09-7.85Q88.34-7.85 88.34-7.45L88.34-7.45Q88.34-7.1 88.14-6.85L88.14-6.85Q87.64-6.2 87.09-5.55 86.54-4.9 85.99-4.25L85.99-4.25Q84.34-2.4 82.26-0.83 80.19 0.75 77.49 0.75ZM90.38 0.35L90.38 0.35Q88.53 0.35 87.61-0.85 86.68-2.05 86.68-3.9L86.68-3.9Q86.68-6 87.78-8.5L87.78-8.5Q88.78-10.75 90.36-12.6 91.93-14.45 93.78-15.58 95.63-16.7 97.33-16.7L97.33-16.7Q99.38-16.7 100.33-15.45 101.28-14.2 101.28-12.3L101.28-12.3Q101.28-10.25 100.23-7.9L100.23-7.9Q99.68-6.7 98.63-5.3 97.58-3.9 96.23-2.6 94.88-1.3 93.36-0.48 91.83 0.35 90.38 0.35ZM91.33-0.65L91.33-0.65Q92.38-0.65 93.43-1.38 94.48-2.1 95.43-3.15 96.38-4.2 97.11-5.28 97.83-6.35 98.18-7.1L98.18-7.1Q99.03-8.7 99.43-10.18 99.83-11.65 99.83-12.75L99.83-12.75Q99.83-15.15 98.03-15.15L98.03-15.15Q96.93-15.15 95.71-14.28 94.48-13.4 93.33-11.95 92.18-10.5 91.33-8.7L91.33-8.7Q89.53-5.1 89.53-2.85L89.53-2.85Q89.53-1.05 90.68-0.75L90.68-0.75Q90.83-0.7 90.98-0.68 91.13-0.65 91.33-0.65ZM111.73 0.15L111.73 0.15Q110.03 0.15 110.03-1.95L110.03-1.95Q110.03-2.95 110.38-4.28 110.73-5.6 111.33-7.15L111.33-7.15Q110.28-5.5 109.01-3.85 107.73-2.2 106.41-1.13 105.08-0.05 103.83-0.05L103.83-0.05Q102.43-0.05 101.96-0.98 101.48-1.9 101.48-3L101.48-3Q101.48-3.95 101.68-4.83 101.88-5.7 102.08-6.1L102.08-6.1Q102.83-8 103.96-10.3 105.08-12.6 105.98-14.3L105.98-14.3Q106.48-15.15 107.61-15.75 108.73-16.35 109.43-16.35L109.43-16.35Q110.18-16.35 110.18-15.85L110.18-15.85Q110.18-15.45 109.68-14.65L109.68-14.65Q109.23-14 108.43-12.63 107.63-11.25 106.71-9.55 105.78-7.85 104.93-6.2L104.93-6.2Q103.83-4.1 103.83-2.55L103.83-2.55Q103.83-1.3 104.58-1.3L104.58-1.3Q104.98-1.3 105.63-1.75 106.28-2.2 107.18-3.2L107.18-3.2Q107.58-3.6 108.41-4.8 109.23-6 110.28-7.53 111.33-9.05 112.33-10.53 113.33-12 113.98-12.95L113.98-12.95Q115.18-15.25 116.53-16.05 117.88-16.85 119.73-16.85L119.73-16.85Q119.23-16.6 118.53-15.55 117.83-14.5 117.08-13.4L117.08-13.4Q116.58-12.65 115.98-11.45 115.38-10.25 114.78-8.93 114.18-7.6 113.76-6.45 113.33-5.3 113.18-4.65L113.18-4.65Q112.93-3.55 112.93-2.9L112.93-2.9Q112.93-1.7 113.53-1.7L113.53-1.7Q113.73-1.7 114.03-1.85L114.03-1.85Q115.13-2.4 116.23-3.45 117.33-4.5 118.33-5.6L118.33-5.6Q118.83-6.15 119.28-6.65 119.73-7.15 120.13-7.7L120.13-7.7Q120.28-7.85 120.38-7.85L120.38-7.85Q120.68-7.85 120.68-7.45L120.68-7.45Q120.68-7.15 120.48-6.95L120.48-6.95Q119.43-5.65 118.28-4.3L118.28-4.3Q117.18-3.05 115.98-1.85L115.98-1.85Q114.98-0.9 113.78-0.38 112.58 0.15 111.73 0.15ZM116.83 0.3L116.83 0.3Q118.98-3.7 120.4-7.43 121.83-11.15 123.68-14.95L123.68-14.95Q124.23-15.95 125.08-16.32 125.93-16.7 126.73-16.7L126.73-16.7Q127.38-16.7 127.88-16.55L127.88-16.55Q127.73-16.2 127.1-15.18 126.48-14.15 125.78-12.85L125.78-12.85Q125.28-11.95 124.28-10.08 123.28-8.2 122.43-6.2L122.43-6.2Q122.88-6.75 123.83-8 124.78-9.25 126.03-10.73 127.28-12.2 128.65-13.58 130.03-14.95 131.35-15.83 132.68-16.7 133.73-16.7L133.73-16.7Q134.53-16.7 135.13-16.2 135.73-15.7 135.73-14.85L135.73-14.85Q135.73-13.6 134.68-11.93 133.63-10.25 132.58-8.65L132.58-8.65Q132.38-8.35 131.85-7.5 131.33-6.65 130.73-5.58 130.13-4.5 129.7-3.53 129.28-2.55 129.28-2L129.28-2Q129.28-1.45 129.73-1.45L129.73-1.45Q130.68-1.45 131.7-2.2 132.73-2.95 133.68-3.93 134.63-4.9 135.18-5.55L135.18-5.55Q135.73-6.15 136.18-6.7 136.63-7.25 137.08-7.75L137.08-7.75Q137.23-7.9 137.33-7.9L137.33-7.9Q137.63-7.9 137.63-7.45L137.63-7.45Q137.63-7.15 137.43-6.95L137.43-6.95Q136.88-6.3 136.33-5.63 135.78-4.95 135.18-4.3L135.18-4.3Q134.63-3.65 134.05-3.03 133.48-2.4 132.88-1.85L132.88-1.85Q130.73 0.15 128.88 0.15L128.88 0.15Q127.63 0.15 127.2-0.6 126.78-1.35 126.78-2.45L126.78-2.45Q126.78-3.65 127.43-5.05 128.08-6.45 129.03-7.93 129.98-9.4 130.95-10.8 131.93-12.2 132.58-13.38 133.23-14.55 133.23-15.35L133.23-15.35Q133.23-15.65 132.88-15.65L132.88-15.65Q132.58-15.65 131.7-14.93 130.83-14.2 129.83-13.23 128.83-12.25 127.95-11.35 127.08-10.45 126.78-10.05L126.78-10.05Q125.53-8.7 124.35-7.15 123.18-5.6 122.13-4.15L122.13-4.15Q121.53-3.3 121.08-2.43 120.63-1.55 120.08-0.6L120.08-0.6Q119.83-0.15 119.4-0.08 118.98 0 118.28 0.05L118.28 0.05Q117.78 0.05 117.48 0.08 117.18 0.1 116.83 0.3ZM138.33 0.15L138.33 0.15Q137.23 0.15 136.48-0.5 135.73-1.15 135.73-2.7L135.73-2.7Q135.73-3.1 135.78-3.5 135.83-3.9 135.93-4.35L135.93-4.35Q136.33-6.35 137.58-9.22 138.83-12.1 140.78-15.75L140.78-15.75 138.88-15.75Q138.33-15.75 138.33-16.05L138.33-16.05Q138.33-16.2 138.6-16.38 138.88-16.55 139.38-16.55L139.38-16.55 141.18-16.55Q142.03-18 142.55-18.82 143.08-19.65 143.43-20.1L143.43-20.1Q144.73-21.75 145.8-22.43 146.88-23.1 147.68-23.2 148.48-23.3 148.83-23.3L148.83-23.3Q148.13-22.55 147.28-21.35 146.43-20.15 145.63-18.88 144.83-17.6 144.28-16.55L144.28-16.55 149.38-16.55Q149.93-16.55 149.93-16.3L149.93-16.3Q149.93-16.1 149.63-15.93 149.33-15.75 148.83-15.75L148.83-15.75 143.78-15.75Q142.98-14.3 142.35-13.18 141.73-12.05 141.1-10.8 140.48-9.55 139.58-7.7L139.58-7.7Q138.88-6.15 138.55-5.05 138.23-3.95 138.23-3.2L138.23-3.2Q138.23-2.25 138.63-1.85 139.03-1.45 139.63-1.45L139.63-1.45Q140.23-1.45 141.03-1.85L141.03-1.85Q142.13-2.4 143.23-3.45 144.33-4.5 145.33-5.6L145.33-5.6Q145.83-6.15 146.28-6.65 146.73-7.15 147.13-7.7L147.13-7.7Q147.28-7.85 147.38-7.85L147.38-7.85Q147.68-7.85 147.68-7.45L147.68-7.45Q147.68-7.15 147.48-6.95L147.48-6.95Q146.43-5.65 145.28-4.3L145.28-4.3Q143.93-2.75 142.28-1.3 140.63 0.15 138.33 0.15ZM142.32 16.5L142.32 16.5Q140.92 16.5 140.15 15.75 139.37 15 139.37 13.6L139.37 13.6Q139.37 11.6 140.52 9.8 141.67 8 143.45 6.48 145.22 4.95 147.12 3.7 149.02 2.45 150.57 1.55 152.12 0.65 152.77 0.15L152.77 0.15Q154.02-2.1 155.12-4.48 156.22-6.85 157.07-9.2L157.07-9.2Q155.77-6.9 154.25-4.8 152.72-2.7 151.2-1.35 149.67 0 148.27 0L148.27 0Q146.82 0 146.32-0.98 145.82-1.95 145.82-3.1L145.82-3.1Q145.82-4 146-4.85 146.17-5.7 146.32-6.1L146.32-6.1Q146.77-7.4 147.47-8.97 148.17-10.55 148.9-12.08 149.62-13.6 150.17-14.75L150.17-14.75Q150.57-15.6 151.67-16.23 152.77-16.85 153.47-16.85L153.47-16.85Q154.22-16.85 154.22-16.3L154.22-16.3Q154.22-15.9 153.77-15.15L153.77-15.15Q153.37-14.45 152.57-12.95 151.77-11.45 150.85-9.65 149.92-7.85 149.17-6.2L149.17-6.2Q148.27-4.25 148.27-2.7L148.27-2.7Q148.27-2.05 148.47-1.65 148.67-1.25 149.12-1.25L149.12-1.25Q149.52-1.25 150.17-1.7 150.82-2.15 151.67-3.2L151.67-3.2Q152.12-3.7 153.05-4.9 153.97-6.1 155.07-7.73 156.17-9.35 157.17-11.18 158.17-13 158.77-14.7L158.77-14.7 159.07-15.8Q159.47-16.15 159.87-16.15L159.87-16.15Q160.42-16.15 160.82-15.65 161.22-15.15 161.27-15.05L161.27-15.05Q160.47-12.15 159.27-8.85 158.07-5.55 156.17-1.45L156.17-1.45Q158.07-2.65 159.37-3.78 160.67-4.9 161.27-5.55L161.27-5.55Q161.77-6.1 162.25-6.65 162.72-7.2 163.12-7.75L163.12-7.75Q163.27-7.9 163.37-7.9L163.37-7.9Q163.67-7.9 163.67-7.45L163.67-7.45Q163.67-7.15 163.47-6.95L163.47-6.95Q162.92-6.3 162.4-5.63 161.87-4.95 161.27-4.25L161.27-4.25Q160.27-3.15 158.6-1.88 156.92-0.6 155.32 0.3L155.32 0.3Q154.07 3.25 152.7 6.13 151.32 9 149.77 11.35 148.22 13.7 146.37 15.1 144.52 16.5 142.32 16.5ZM142.12 15.45L142.12 15.45Q143.42 15.45 144.7 14.4 145.97 13.35 147.12 11.68 148.27 10 149.27 8.1 150.27 6.2 151.05 4.45 151.82 2.7 152.32 1.55L152.32 1.55Q151.47 2.1 150.02 3.13 148.57 4.15 146.92 5.45 145.27 6.75 143.8 8.2 142.32 9.65 141.4 11.08 140.47 12.5 140.47 13.7L140.47 13.7Q140.47 14.3 140.82 14.88 141.17 15.45 142.12 15.45Z" opacity="1" transform="matrix(1,0,0,1,0,0)" fill="#ffffff" class="wordmark-text-0" data-fill-palette-color="primary" id="text-0"></path></svg></g></svg></g></svg></g></svg></g></svg></g></svg></g></svg></g><defs></defs></svg><rect width="395.52" height="108.47401982067014" fill="none" stroke="none" visibility="hidden"></rect></g></svg></g></svg>